<svg width="21" height="20" viewBox="0 0 21 20" fill="none" xmlns="http://www.w3.org/2000/svg">
<path d="M8.05882 8.33331L12.2255 12.5M19.7255 9.99998C19.7255 15.0626 15.6214 19.1666 10.5588 19.1666C5.49621 19.1666 1.39215 15.0626 1.39215 9.99998C1.39215 4.93737 5.49621 0.833313 10.5588 0.833313C15.6214 0.833313 19.7255 4.93737 19.7255 9.99998ZM8.25546 8.25957L13.8672 6.15518C14.2021 6.02957 14.5292 6.35666 14.4036 6.69161L12.2992 12.3033C12.2528 12.427 12.1506 12.5214 12.0236 12.5577L7.11329 13.9606C6.79898 14.0504 6.50839 13.7598 6.59819 13.4455L8.00112 8.53524C8.03741 8.40823 8.13177 8.30595 8.25546 8.25957Z" stroke="#757575" stroke-width="1.5"/>
</svg>
