<svg width="21" height="20" viewBox="0 0 21 20" fill="none" xmlns="http://www.w3.org/2000/svg">
<path d="M7.60787 10.9167C7.19366 10.9167 6.85787 11.2525 6.85787 11.6667C6.85787 12.0809 7.19366 12.4167 7.60787 12.4167V10.9167ZM14.2745 12.4167C14.6887 12.4167 15.0245 12.0809 15.0245 11.6667C15.0245 11.2525 14.6887 10.9167 14.2745 10.9167V12.4167ZM7.60787 4.25002C7.19366 4.25002 6.85787 4.58581 6.85787 5.00002C6.85787 5.41423 7.19366 5.75002 7.60787 5.75002V4.25002ZM14.2745 5.75002C14.6887 5.75002 15.0245 5.41423 15.0245 5.00002C15.0245 4.58581 14.6887 4.25002 14.2745 4.25002V5.75002ZM7.60787 7.58335C7.19366 7.58335 6.85787 7.91914 6.85787 8.33335C6.85787 8.74757 7.19366 9.08335 7.60787 9.08335V7.58335ZM14.2745 9.08335C14.6887 9.08335 15.0245 8.74757 15.0245 8.33335C15.0245 7.91914 14.6887 7.58335 14.2745 7.58335V9.08335ZM5.10787 14.25C4.69366 14.25 4.35787 14.5858 4.35787 15C4.35787 15.4142 4.69366 15.75 5.10787 15.75V14.25ZM16.7745 15.75C17.1887 15.75 17.5245 15.4142 17.5245 15C17.5245 14.5858 17.1887 14.25 16.7745 14.25V15.75ZM5.17291 18.1457L4.82718 18.8113L5.17291 18.1457ZM4.46218 17.435L3.79662 17.7807L4.46218 17.435ZM17.4202 17.435L18.0858 17.7807L17.4202 17.435ZM16.7095 18.1457L17.0552 18.8113L16.7095 18.1457ZM16.7095 1.85433L17.0552 1.18877L16.7095 1.85433ZM17.4202 2.56506L18.0858 2.21933L17.4202 2.56506ZM5.17291 1.85433L4.82718 1.18877L5.17291 1.85433ZM4.46218 2.56506L3.79662 2.21933L4.46218 2.56506ZM7.60787 11.6667V12.4167H14.2745V11.6667V10.9167H7.60787V11.6667ZM7.60787 5.00002V5.75002H14.2745V5.00002V4.25002H7.60787V5.00002ZM7.60787 8.33335V9.08335H14.2745V8.33335V7.58335H7.60787V8.33335ZM5.10787 15V15.75H16.7745V15V14.25H5.10787V15ZM6.95787 1.66669V2.41669H14.9245V1.66669V0.916687H6.95787V1.66669ZM17.6079 4.35002H16.8579V15.65H17.6079H18.3579V4.35002H17.6079ZM14.9245 18.3334V17.5834H6.95787V18.3334V19.0834H14.9245V18.3334ZM4.27454 15.65H5.02454V4.35002H4.27454H3.52454V15.65H4.27454ZM6.95787 18.3334V17.5834C6.47071 17.5834 6.15119 17.5828 5.90699 17.5625C5.67177 17.5429 5.57436 17.5091 5.51864 17.4801L5.17291 18.1457L4.82718 18.8113C5.13269 18.97 5.45319 19.0299 5.78285 19.0573C6.10353 19.084 6.49588 19.0834 6.95787 19.0834V18.3334ZM4.27454 15.65H3.52454C3.52454 16.112 3.52393 16.5044 3.55056 16.825C3.57794 17.1547 3.63792 17.4752 3.79662 17.7807L4.46218 17.435L5.12774 17.0892C5.0988 17.0335 5.06495 16.9361 5.04542 16.7009C5.02514 16.4567 5.02454 16.1372 5.02454 15.65H4.27454ZM5.17291 18.1457L5.51864 17.4801C5.35122 17.3932 5.21471 17.2567 5.12774 17.0892L4.46218 17.435L3.79662 17.7807C4.0259 18.2221 4.38579 18.582 4.82718 18.8113L5.17291 18.1457ZM17.6079 15.65H16.8579C16.8579 16.1372 16.8573 16.4567 16.837 16.7009C16.8175 16.9361 16.7836 17.0335 16.7547 17.0892L17.4202 17.435L18.0858 17.7807C18.2445 17.4752 18.3045 17.1547 18.3318 16.825C18.3585 16.5044 18.3579 16.112 18.3579 15.65H17.6079ZM14.9245 18.3334V19.0834C15.3865 19.0834 15.7789 19.084 16.0996 19.0573C16.4292 19.0299 16.7497 18.97 17.0552 18.8113L16.7095 18.1457L16.3638 17.4801C16.308 17.5091 16.2106 17.5429 15.9754 17.5625C15.7312 17.5828 15.4117 17.5834 14.9245 17.5834V18.3334ZM17.4202 17.435L16.7547 17.0892C16.6677 17.2567 16.5312 17.3932 16.3638 17.4801L16.7095 18.1457L17.0552 18.8113C17.4966 18.582 17.8565 18.2221 18.0858 17.7807L17.4202 17.435ZM14.9245 1.66669V2.41669C15.4117 2.41669 15.7312 2.41729 15.9754 2.43757C16.2106 2.4571 16.308 2.49095 16.3638 2.51989L16.7095 1.85433L17.0552 1.18877C16.7497 1.03007 16.4292 0.970092 16.0996 0.942715C15.7789 0.916084 15.3865 0.916687 14.9245 0.916687V1.66669ZM17.6079 4.35002H18.3579C18.3579 3.88803 18.3585 3.49568 18.3318 3.175C18.3045 2.84534 18.2445 2.52484 18.0858 2.21933L17.4202 2.56506L16.7547 2.91079C16.7836 2.96651 16.8175 3.06392 16.837 3.29914C16.8573 3.54334 16.8579 3.86286 16.8579 4.35002H17.6079ZM16.7095 1.85433L16.3638 2.51989C16.5312 2.60686 16.6677 2.74337 16.7547 2.91079L17.4202 2.56506L18.0858 2.21933C17.8565 1.77794 17.4966 1.41805 17.0552 1.18877L16.7095 1.85433ZM6.95787 1.66669V0.916687C6.49588 0.916687 6.10353 0.916084 5.78285 0.942715C5.45319 0.970092 5.13269 1.03007 4.82718 1.18877L5.17291 1.85433L5.51864 2.51989C5.57436 2.49095 5.67177 2.4571 5.90699 2.43757C6.15119 2.41729 6.47071 2.41669 6.95787 2.41669V1.66669ZM4.27454 4.35002H5.02454C5.02454 3.86286 5.02514 3.54334 5.04542 3.29914C5.06495 3.06392 5.0988 2.96651 5.12774 2.91079L4.46218 2.56506L3.79662 2.21933C3.63792 2.52484 3.57794 2.84534 3.55056 3.175C3.52393 3.49568 3.52454 3.88803 3.52454 4.35002H4.27454ZM5.17291 1.85433L4.82718 1.18877C4.38579 1.41805 4.0259 1.77794 3.79662 2.21933L4.46218 2.56506L5.12774 2.91079C5.21471 2.74337 5.35122 2.60686 5.51864 2.51989L5.17291 1.85433Z" fill="#757575"/>
</svg>
