<svg width="17" height="16" viewBox="0 0 17 16" fill="none" xmlns="http://www.w3.org/2000/svg">
<path d="M15.3415 4.16688L12.0081 1.38911C11.3901 0.874042 10.4923 0.874041 9.87419 1.38911L7.00814 3.77748C6.39006 4.29255 5.49227 4.29255 4.87419 3.77748L2.30798 1.63898C1.76521 1.18667 0.941162 1.57263 0.941162 2.27916V10.5527C0.941162 11.0473 1.16087 11.5164 1.54085 11.833L4.87419 14.6108C5.18323 14.8683 5.56219 14.9971 5.94116 14.9971M5.94116 4.66663V14.6666M15.9412 9.66663C15.9412 11.5076 13.4412 14.6666 12.6078 14.6666C11.7745 14.6666 9.2745 11.5076 9.2745 9.66663C9.2745 7.82568 10.7669 6.33329 12.6078 6.33329C14.4488 6.33329 15.9412 7.82568 15.9412 9.66663Z" stroke="#757575" stroke-width="1.25" stroke-linecap="round"/>
</svg>
