<svg width="21" height="20" viewBox="0 0 21 20" fill="none" xmlns="http://www.w3.org/2000/svg">
<path d="M10.059 12.2917C12.0725 12.2917 13.7048 10.6594 13.7048 8.64585C13.7048 6.63232 12.0725 5.00002 10.059 5.00002C8.04542 5.00002 6.41313 6.63232 6.41313 8.64585C6.41313 10.6594 8.04542 12.2917 10.059 12.2917ZM10.059 12.2917C12.9007 12.2917 15.2678 13.8157 15.7866 15.8334M10.059 12.2917C7.21725 12.2917 4.85013 13.8157 4.33132 15.8334M18.3922 10C18.3922 14.6024 14.6612 18.3334 10.0589 18.3334C5.45649 18.3334 1.72552 14.6024 1.72552 10C1.72552 5.39765 5.45649 1.66669 10.0589 1.66669C14.6612 1.66669 18.3922 5.39765 18.3922 10Z" stroke="#757575" stroke-width="1.25" stroke-linecap="round"/>
</svg>
